<svg width="324" height="233" viewBox="0 0 324 233" fill="none" xmlns="http://www.w3.org/2000/svg">
<g clip-path="url(#clip0_1_17)">
<path d="M274.276 172.159L277.142 146.335C287.734 140.955 299.271 138.726 310.752 139.841C293.836 153.547 293.648 183.311 281.431 202.828C277.582 208.88 272.634 213.826 266.956 217.3C261.278 220.773 255.014 222.685 248.629 222.893L234.709 231.14C233.773 218.946 235.075 206.657 238.524 195.118C241.973 183.579 247.488 173.065 254.689 164.301C258.769 159.432 263.35 155.192 268.323 151.682C270.763 161.921 274.276 172.159 274.276 172.159Z" fill="#F2F2F2"/>
<path d="M243.574 15.0726C244.314 13.0442 245.436 11.2448 246.854 9.81311C248.272 8.38147 249.948 7.35596 251.752 6.81576C255.76 5.57807 261.627 7.46347 264.639 10.1706C270.15 15.1224 271.494 32.1336 267.709 37.5094C266.956 37.4734 264.357 37.4469 263.595 37.4211L262.517 34.181V37.3892C256.568 37.2234 250.375 37.3272 244.179 37.4345C243.623 33.6284 242.3 18.7338 243.574 15.0726Z" fill="#2F2E41"/>
<path d="M244.584 220.201L239.159 220.201L236.577 195.349L244.585 195.349L244.584 220.201Z" fill="#9E616A"/>
<path d="M292.081 216.194L286.831 217.82L279.054 194.545L286.803 192.146L292.081 216.194Z" fill="#9E616A"/>
<path d="M251.859 33.4065C256.605 33.4065 260.452 28.8377 260.452 23.2018C260.452 17.5658 256.605 12.997 251.859 12.997C247.113 12.997 243.265 17.5658 243.265 23.2018C243.265 28.8377 247.113 33.4065 251.859 33.4065Z" fill="#9E616A"/>
<path d="M245.954 9.91339C247.605 8.71802 249.496 8.07139 251.43 8.04112C253.364 8.01085 255.269 8.59804 256.946 9.7413C258.623 10.8846 260.011 12.5419 260.964 14.54C261.917 16.5381 262.401 18.8036 262.364 21.0997C257.68 22.5214 252.688 23.1161 247.398 21.4421L246.189 17.9277L245.476 21.4447C243.857 22.7965 242.295 22.7941 240.79 21.4374C240.726 19.1478 241.169 16.8785 242.075 14.8562C242.982 12.8339 244.319 11.1295 245.954 9.91339Z" fill="#2F2E41"/>
<path d="M247.011 232.435H243.161L242.474 228.118L240.714 232.435H230.503C230.013 232.435 229.537 232.249 229.142 231.905C228.748 231.56 228.457 231.075 228.311 230.52C228.165 229.965 228.173 229.37 228.333 228.82C228.492 228.271 228.796 227.796 229.198 227.466L237.353 220.778V216.415L245.93 217.023L247.011 232.435Z" fill="#2F2E41"/>
<path d="M297.504 227.158L293.779 228.312L292.197 224.341L291.411 229.045L281.53 232.103C281.056 232.25 280.555 232.213 280.101 231.998C279.646 231.782 279.261 231.4 279.002 230.907C278.743 230.414 278.624 229.835 278.662 229.255C278.7 228.676 278.892 228.126 279.212 227.686L285.682 218.772L284.755 214.549L293.184 212.568L297.504 227.158Z" fill="#2F2E41"/>
<path d="M291.415 200.566C288.095 185.907 284.402 171.571 275.511 161.75L273.064 119.095C276.506 111.503 267.568 91.4668 267.568 91.4668L264.446 86.0689L242.804 90.529V90.529C237.739 106.934 235.269 110.979 235.56 141.783C235.851 172.588 236.558 204.584 236.558 204.584H236.245C235.725 204.584 235.227 204.829 234.86 205.265C234.492 205.701 234.286 206.293 234.286 206.91C234.286 207.527 234.492 208.118 234.86 208.554C235.227 208.991 235.725 209.236 236.245 209.236H246.038C246.557 209.236 247.055 208.991 247.423 208.554C247.79 208.118 247.996 207.527 247.996 206.91C247.996 206.293 247.79 205.701 247.423 205.265C247.055 204.829 246.557 204.584 246.038 204.584H245.785C251.533 185.397 252.56 155.887 252.815 124.69L260.99 164.116L280.744 200.416C280.24 200.463 279.771 200.74 279.435 201.188C279.099 201.637 278.923 202.223 278.943 202.822C278.964 203.422 279.179 203.989 279.544 204.404C279.909 204.82 280.395 205.051 280.9 205.049H290.693C291.149 205.05 291.59 204.862 291.941 204.517C292.292 204.173 292.531 203.694 292.617 203.162C292.703 202.631 292.629 202.081 292.41 201.607C292.191 201.133 291.839 200.765 291.415 200.566Z" fill="#2F2E41"/>
<path d="M269.807 95.4431H269.807C269.726 95.0636 269.545 94.7244 269.292 94.4741C269.038 94.2239 268.724 94.0754 268.395 94.05C265.73 90.8381 263.733 62.3329 265.83 60.3628L265.826 60.3276L265.202 44.4854C265.179 43.9101 264.979 43.3648 264.639 42.9537C264.299 42.5427 263.844 42.2947 263.36 42.2572L260.061 42.0011C260.016 41.9993 259.973 41.9767 259.942 41.9381C259.91 41.8994 259.893 41.8478 259.893 41.794C259.893 41.3614 259.821 40.9331 259.681 40.5335C259.542 40.1338 259.338 39.7707 259.08 39.4648C258.823 39.1589 258.517 38.9163 258.18 38.7508C257.844 38.5852 257.483 38.5 257.119 38.5H247.353C246.72 38.5003 246.11 38.7748 245.635 39.2718C245.161 39.7689 244.856 40.4544 244.777 41.1997C244.773 41.251 244.752 41.2985 244.72 41.3327C244.687 41.3668 244.645 41.3852 244.602 41.384L244.6 41.3839C243.491 41.3568 242.41 41.8029 241.553 42.6414C240.697 43.4798 240.122 44.6551 239.933 45.9538C238.598 55.1783 239.228 74.4296 240.551 86.0689C241.012 90.1208 237.496 97.8995 237.322 101.29C237.305 101.617 237.342 101.946 237.432 102.256C237.522 102.567 237.662 102.853 237.845 103.099C237.456 103.232 237.125 103.54 236.923 103.957C236.721 104.374 236.663 104.868 236.762 105.335H236.762C236.863 105.814 237.121 106.225 237.477 106.478C237.834 106.731 238.261 106.805 238.664 106.685L268.671 97.7021C269.074 97.5814 269.42 97.2757 269.633 96.852C269.846 96.4284 269.909 95.9216 269.807 95.4431Z" fill="#E6E6E6"/>
<path d="M205.265 56.3706C205.786 56.1292 206.345 56.0262 206.902 56.0689C207.46 56.1117 208.003 56.2992 208.493 56.6182C208.983 56.9371 209.409 57.3799 209.739 57.9151C210.07 58.4504 210.297 59.0652 210.406 59.7163L240.559 67.4166L235.897 73.7132L207.137 65.1594C206.204 65.3039 205.259 65.0368 204.48 64.4088C203.702 63.7809 203.144 62.8357 202.914 61.7524C202.683 60.6691 202.795 59.5229 203.228 58.531C203.662 57.5391 204.386 56.7704 205.265 56.3706V56.3706Z" fill="#9E616A"/>
<path d="M244.954 76.0995C240.299 78.9931 212.177 67.6729 210.948 67.1759L210.636 67.0495L216.419 60.7366L238.669 64.6056L239.343 49.1356C239.419 47.4286 239.938 45.7913 240.828 44.448C241.718 43.1046 242.936 42.1209 244.316 41.6317C245.537 41.2003 246.835 41.1749 248.068 41.5583C249.301 41.9418 250.421 42.7193 251.308 43.8064C252.195 44.8935 252.813 46.2485 253.097 47.724C253.38 49.1995 253.317 50.739 252.915 52.175L247.409 71.8333C246.985 73.3425 246.261 74.7077 245.297 75.8132C245.195 75.9275 245.079 76.0239 244.954 76.0995Z" fill="#E6E6E6"/>
<path d="M219.242 232.128H45.1892L45.1461 231.965L45.103 231.802C44.5339 229.654 44.0136 227.476 43.5452 225.284C43.0769 223.092 42.6605 220.886 42.2994 218.681C41.8086 215.687 41.4153 212.662 41.1216 209.628C40.828 206.593 40.6338 203.548 40.5412 200.514C40.3804 195.137 41.135 189.776 42.7598 184.753C44.3847 179.73 46.8463 175.148 49.9974 171.281C53.1485 167.414 56.9242 164.342 61.0986 162.249C65.2729 160.156 69.7601 159.084 74.2914 159.098H193.44C198.178 159.089 202.864 160.265 207.194 162.55C211.524 164.836 215.399 168.179 218.567 172.363C221.736 176.546 224.126 181.476 225.582 186.83C227.038 192.184 227.528 197.842 227.019 203.436V203.437C226.679 207.053 226.109 210.634 225.314 214.149C224.492 217.784 223.453 221.346 222.207 224.807C221.783 225.986 221.332 227.168 220.854 228.353C220.377 229.534 219.877 230.711 219.353 231.881L219.297 232.005L219.242 232.128Z" fill="#E6E6E6"/>
<path d="M194.72 173.751H69.7631C67.01 173.751 64.3697 172.452 62.423 170.14C60.4763 167.829 59.3826 164.693 59.3826 161.424C59.3826 158.155 60.4763 155.02 62.423 152.708C64.3697 150.396 67.01 149.098 69.7631 149.098H194.72C197.474 149.098 200.114 150.396 202.061 152.708C204.007 155.02 205.101 158.155 205.101 161.424C205.101 164.693 204.007 167.829 202.061 170.14C200.114 172.452 197.474 173.751 194.72 173.751Z" fill="#6C63FF"/>
<path d="M196.297 165.226H69.1042L69.0181 164.9C67.0503 157.487 65.9288 149.795 65.6836 142.028C65.5709 138.087 66.1276 134.16 67.3205 130.481C68.5134 126.801 70.3181 123.445 72.627 120.611C74.9359 117.778 77.7016 115.526 80.7593 113.989C83.8169 112.452 87.1039 111.662 90.4242 111.666H177.399C180.872 111.662 184.306 112.526 187.479 114.203C190.652 115.879 193.491 118.33 195.814 121.396C198.136 124.463 199.888 128.075 200.956 131.999C202.024 135.923 202.385 140.07 202.014 144.17C201.373 151.114 199.487 158.115 196.407 164.979L196.297 165.226Z" fill="#E6E6E6"/>
<path d="M179.052 127.235H86.9986C84.2456 127.235 81.6052 125.937 79.6585 123.625C77.7118 121.313 76.6182 118.178 76.6182 114.909C76.6182 111.639 77.7118 108.504 79.6585 106.192C81.6052 103.881 84.2456 102.582 86.9986 102.582H179.052C181.805 102.582 184.445 103.881 186.392 106.192C188.339 108.504 189.432 111.639 189.432 114.909C189.432 118.178 188.339 121.313 186.392 123.625C184.445 125.937 181.805 127.235 179.052 127.235Z" fill="#6C63FF"/>
<path d="M185.182 83.878C183.253 81.3243 180.892 79.2814 178.254 77.8822C175.616 76.4829 172.759 75.7587 169.87 75.7564H97.9549C95.2009 75.7532 92.4745 76.4085 89.9384 77.6833C87.4023 78.9581 85.1082 80.8262 83.1931 83.1764C81.278 85.5265 79.781 88.3105 78.7914 91.3624C77.8017 94.4142 77.3397 97.6715 77.4329 100.94C77.6351 107.37 78.5625 113.739 80.1906 119.876L80.2767 120.202H185.535L185.644 119.956C188.103 114.613 189.679 108.762 190.286 102.717C190.597 99.3272 190.303 95.8979 189.424 92.6521C188.544 89.4062 187.099 86.4167 185.182 83.878Z" fill="#E6E6E6"/>
<path d="M168.558 75.7564H100.626C100.122 77.6062 99.9928 79.5715 100.25 81.4918C100.507 83.4121 101.143 85.233 102.106 86.8056C103.069 88.3782 104.332 89.6581 105.791 90.5406C107.25 91.4231 108.864 91.8832 110.502 91.8834H158.683C160.32 91.8832 161.934 91.4231 163.393 90.5406C164.852 89.6581 166.115 88.3782 167.078 86.8056C168.041 85.233 168.677 83.4121 168.934 81.4918C169.191 79.5715 169.062 77.6062 168.558 75.7564Z" fill="#6C63FF"/>
<path d="M221.847 224.625C221.001 226.979 220.054 229.325 219.007 231.663H45.4767C44.3397 227.372 43.4073 223.008 42.6838 218.592C43.0073 218.293 43.3813 218.082 43.7802 217.971C44.1791 217.86 44.5935 217.853 44.9949 217.95C45.8218 218.261 46.5365 218.893 47.024 219.745C48.4851 221.997 49.0962 224.848 49.672 227.611C50.287 225.983 50.9255 224.313 51.9988 223.057C52.426 222.532 52.9403 222.117 53.5094 221.839C54.0784 221.561 54.6898 221.426 55.3049 221.443C55.7396 220.52 56.3599 219.738 57.1107 219.169C58.1644 218.424 59.602 218.322 60.5617 219.22C61.2057 219.91 61.635 220.837 61.7799 221.853C62.3166 224.625 61.87 227.518 61.4235 230.318C62.5555 229.137 63.7228 227.937 65.1369 227.328C65.7769 227.049 66.4583 226.931 67.1386 226.979C67.2717 225.431 67.6157 223.92 68.1571 222.504C68.615 221.146 69.4067 219.984 70.429 219.169C71.4827 218.424 72.9203 218.322 73.88 219.22C74.5241 219.91 74.9533 220.837 75.0983 221.853C75.6349 224.625 75.1884 227.518 74.7418 230.318C75.8738 229.137 77.0412 227.937 78.4553 227.328C79.0953 227.049 79.7766 226.931 80.4569 226.979C80.5901 225.431 80.934 223.92 81.4754 222.504C81.9334 221.146 82.7251 219.984 83.7473 219.169C84.8011 218.424 86.2387 218.322 87.1984 219.22C87.8424 219.91 88.2716 220.837 88.4166 221.853C88.9533 224.625 88.5067 227.518 88.0601 230.318C89.1922 229.137 90.3595 227.937 91.7736 227.328C92.4136 227.049 93.095 226.931 93.7753 226.979C93.9084 225.431 94.2524 223.92 94.7937 222.504C95.2517 221.146 96.0434 219.984 97.0657 219.169C98.1194 218.424 99.557 218.322 100.517 219.22C101.161 219.91 101.59 220.837 101.735 221.853C102.272 224.625 101.825 227.518 101.378 230.318C102.511 229.137 103.678 227.937 105.092 227.328C105.732 227.049 106.413 226.931 107.094 226.979C107.227 225.431 107.571 223.92 108.112 222.504C108.57 221.146 109.362 219.984 110.384 219.169C111.438 218.424 112.875 218.322 113.835 219.22C114.479 219.91 114.908 220.837 115.053 221.853C115.59 224.625 115.143 227.518 114.697 230.318C115.829 229.137 116.996 227.937 118.41 227.328C119.05 227.049 119.732 226.931 120.412 226.979C120.545 225.431 120.889 223.92 121.43 222.504C121.888 221.146 122.68 219.984 123.702 219.169C124.756 218.424 126.194 218.322 127.153 219.22C127.797 219.91 128.227 220.837 128.372 221.853C128.908 224.625 128.462 227.518 128.015 230.318C129.147 229.137 130.315 227.937 131.729 227.328C132.369 227.049 133.05 226.931 133.73 226.979C133.863 225.431 134.207 223.92 134.749 222.504C135.207 221.146 135.998 219.984 137.021 219.169C138.074 218.424 139.512 218.322 140.472 219.22C141.116 219.91 141.545 220.837 141.69 221.853C142.227 224.625 141.78 227.518 141.334 230.318C142.466 229.137 143.633 227.937 145.047 227.328C145.687 227.049 146.368 226.931 147.049 226.979C147.182 225.431 147.526 223.92 148.067 222.504C148.525 221.146 149.317 219.984 150.339 219.169C151.393 218.424 152.83 218.322 153.79 219.22C154.434 219.91 154.863 220.837 155.008 221.853C155.545 224.625 155.098 227.518 154.652 230.318C155.784 229.137 156.951 227.937 158.365 227.328C159.005 227.049 159.687 226.931 160.367 226.979C160.5 225.431 160.844 223.92 161.385 222.504C161.843 221.146 162.635 219.984 163.657 219.169C164.711 218.424 166.149 218.322 167.108 219.22C167.752 219.91 168.182 220.837 168.327 221.853C168.863 224.625 168.417 227.518 167.97 230.318C169.102 229.137 170.27 227.937 171.684 227.328C172.324 227.049 173.005 226.931 173.685 226.979C173.818 225.431 174.162 223.92 174.704 222.504C175.162 221.146 175.953 219.984 176.976 219.169C178.029 218.424 179.467 218.322 180.427 219.22C181.071 219.91 181.5 220.837 181.645 221.853C182.182 224.625 181.735 227.518 181.289 230.318C182.421 229.137 183.588 227.937 185.002 227.328C185.642 227.049 186.323 226.931 187.004 226.979C187.137 225.431 187.481 223.92 188.022 222.504C188.48 221.146 189.272 219.984 190.294 219.169C191.348 218.424 192.785 218.322 193.745 219.22C194.389 219.91 194.818 220.837 194.963 221.853C195.5 224.625 195.053 227.518 194.607 230.318C195.739 229.137 196.906 227.937 198.32 227.328C198.96 227.049 199.642 226.931 200.322 226.979C200.455 225.431 200.799 223.92 201.34 222.504C201.798 221.146 202.59 219.984 203.612 219.169C204.666 218.424 206.104 218.322 207.063 219.22C207.707 219.91 208.137 220.837 208.282 221.853C208.818 224.625 208.372 227.518 207.925 230.318C209.057 229.137 210.225 227.937 211.639 227.328C212.279 227.049 212.96 226.931 213.64 226.979C213.773 225.431 214.117 223.92 214.659 222.504C215.117 221.146 215.908 219.984 216.931 219.169C217.984 218.424 219.422 218.322 220.382 219.22C221.026 219.91 221.455 220.837 221.6 221.853C221.77 222.763 221.853 223.693 221.847 224.625Z" fill="#CCCCCC"/>
<path d="M80.0902 90.8867C82.8388 89.4467 86.1535 89.9924 88.607 91.98C91.1905 94.073 92.3932 97.7586 92.0791 101.395C91.905 103.482 91.1927 105.454 90.0397 107.042L90.4551 106.838C89.1758 106.819 88.4751 105.042 88.6695 103.699C88.9328 101.881 90.6816 100.94 92.0713 100.803C93.963 100.618 95.7822 101.592 97.4881 102.432C99.3191 103.342 101.195 104.119 103.104 104.76C106.989 106.048 110.993 106.757 115.024 106.871C117.011 106.928 119 106.835 120.978 106.594C122.785 106.374 124.637 106.101 126.333 105.284C128.046 104.459 129.526 103.101 130.259 101.037C130.619 100.123 130.765 99.1104 130.681 98.1061C130.597 97.1018 130.286 96.1431 129.781 95.3315C129.708 95.2462 129.617 95.185 129.518 95.1538C129.419 95.1226 129.315 95.1225 129.216 95.1536C129.117 95.1846 129.026 95.2458 128.953 95.3309C128.88 95.4161 128.827 95.5224 128.799 95.6394C128.527 97.2318 128.539 98.8738 128.832 100.461C129.125 102.048 129.693 103.544 130.501 104.856C131.358 106.255 132.471 107.407 133.755 108.225C135.04 109.043 136.463 109.507 137.919 109.582C141.244 109.795 144.495 108.265 147.383 106.452C150.4 104.558 153.153 102.132 156.22 100.342C159.18 98.6166 162.589 97.3456 165.881 98.381C168.505 99.2062 171.279 101.928 170.413 105.505C170.078 106.887 169.145 108.051 167.877 108.046C166.802 108.043 165.56 107.235 165.43 105.853C165.275 104.198 166.61 102.897 167.798 102.409C169.5 101.709 171.398 102.234 173.139 102.409C175.997 102.713 178.849 101.756 181.15 99.7193C183.369 97.8014 184.986 95.0592 185.744 91.927C185.923 91.1291 186.039 90.3133 186.091 89.4899C186.151 88.5947 184.976 88.5994 184.915 89.4899C184.77 91.1691 184.347 92.7974 183.668 94.2808C182.99 95.7641 182.071 97.073 180.963 98.1317C179.862 99.2238 178.59 100.048 177.22 100.557C175.732 101.062 174.172 101.198 172.638 100.957C170.872 100.744 168.975 100.361 167.27 101.158C165.964 101.768 164.704 102.979 164.346 104.66C163.65 107.93 166.801 110.298 169.216 109.14C171.926 107.841 172.344 103.499 170.901 100.84C169.166 97.6448 165.704 96.4019 162.646 96.6398C155.38 97.205 150.109 104.119 143.552 106.998C140.458 108.356 136.885 108.881 133.927 106.778C132.729 105.893 131.727 104.681 131.005 103.243C130.282 101.804 129.86 100.181 129.773 98.5096C129.733 97.6719 129.786 96.8315 129.932 96.0104L128.95 96.3183C129.682 97.4429 129.651 98.9786 129.261 100.259C128.787 101.693 127.879 102.865 126.714 103.546C125.435 104.288 124.057 104.766 122.642 104.956C121.073 105.227 119.493 105.392 117.908 105.453C111.533 105.73 105.176 104.476 99.2191 101.764C96.5347 100.54 93.6901 98.6504 90.7343 99.6921C88.5065 100.477 86.7985 103.008 87.7299 105.803C87.9003 106.387 88.1917 106.911 88.5772 107.325C88.9628 107.74 89.4301 108.033 89.936 108.177C90.2039 108.273 90.4911 108.259 90.7517 108.138C90.9903 107.917 91.1923 107.645 91.3475 107.337C91.7425 106.722 92.0796 106.057 92.353 105.355C93.3934 102.667 93.5861 99.6252 92.8958 96.783C91.259 90.1843 84.7088 86.9513 79.4971 89.6818C78.8067 90.0435 79.404 91.2462 80.0902 90.8867L80.0902 90.8867Z" fill="#3F3D56"/>
<path d="M67.2379 132.458C68.9202 137.271 71.4818 141.579 74.7377 145.072C77.9935 148.565 81.8622 151.156 86.0641 152.656C87.4958 153.173 88.9639 153.534 90.4504 153.737C91.8662 153.919 93.4198 153.813 94.5921 152.746C96.2802 151.21 96.2439 146.819 93.5703 146.851C92.2487 146.867 91.1426 148.305 90.9783 149.798C90.7866 151.541 91.699 153.169 92.7924 154.223C95.1915 156.534 98.4828 156.819 101.407 156.095C104.766 155.265 107.71 153.01 110.655 151.034C114.027 148.772 118.035 146.5 122.001 147.712C125.01 148.631 127.753 152.381 126.772 156.209L127.635 155.792C126.329 155.089 126.012 153.145 126.524 151.659C127.166 149.798 129.043 149.103 130.6 149.104C132.652 149.106 134.548 150.237 136.37 151.234C138.047 152.171 139.788 152.933 141.576 153.513C148.626 155.689 156.093 154.902 162.71 151.286C164.335 150.413 165.881 149.348 167.325 148.107C168.467 147.106 169.787 145.355 168.866 143.598C168.697 143.256 168.459 142.968 168.174 142.761C167.889 142.553 167.565 142.432 167.232 142.408C166.428 142.403 166.075 143.066 165.824 143.876C165.328 145.599 165.322 147.468 165.808 149.195C166.828 153.022 169.547 155.663 172.772 156.627C176.338 157.694 180.178 156.966 183.626 155.649C190.218 153.104 195.897 147.998 199.747 141.152C200.228 140.292 200.673 139.406 201.088 138.499C201.449 137.71 200.435 137.004 200.073 137.794C196.911 144.64 191.922 150.044 185.891 153.154C180.356 156.009 171.193 158.111 167.573 150.531C166.824 149.036 166.507 147.292 166.671 145.563C166.736 145.016 166.884 143.432 167.56 143.949C168.326 144.534 167.91 145.568 167.423 146.186C166.325 147.579 164.666 148.557 163.252 149.423C161.736 150.349 160.154 151.114 158.525 151.71C151.924 154.155 144.816 153.827 138.395 150.78C134.988 149.123 131.1 146.182 127.406 148.613C126.737 149.033 126.173 149.656 125.772 150.418C125.371 151.181 125.147 152.055 125.123 152.954C125.082 154.602 125.736 156.294 127.042 156.997C127.12 157.048 127.207 157.078 127.296 157.085C127.385 157.091 127.475 157.074 127.558 157.034C127.64 156.994 127.715 156.932 127.775 156.853C127.835 156.775 127.879 156.681 127.905 156.58C128.64 153.711 127.623 150.708 125.839 148.709C123.742 146.356 120.886 145.683 118.086 146.142C111.726 147.184 107.114 153.378 100.889 154.799C98.2033 155.412 94.8898 155.068 92.9577 152.491C92.0945 151.339 91.6071 149.008 93.2209 148.33C94.4049 147.832 94.7753 149.499 94.5113 150.525C93.6957 153.695 89.1885 152.195 87.3182 151.621C84.7459 150.825 82.283 149.596 80.0043 147.971C74.7904 144.298 70.7113 138.728 68.3711 132.087C68.0892 131.267 66.9519 131.626 67.238 132.458H67.2379Z" fill="#CCCCCC"/>
<path d="M42.1074 191.644C51.1161 189.628 62.1924 187.597 68.9499 196.889C70.2903 198.694 71.2164 200.878 71.6391 203.231C71.8178 204.289 72.042 205.464 71.1374 206.117C70.7892 206.356 70.3958 206.486 69.9937 206.496C69.5917 206.506 69.194 206.395 68.8377 206.174C66.864 204.874 67.9635 201.415 69.4491 200.281C71.4721 198.738 74.0746 199.397 76.1508 200.402C78.4034 201.492 80.5341 202.885 82.8134 203.912C84.9678 204.882 87.1769 205.671 89.4242 206.274C94.0794 207.527 98.859 208.001 103.625 207.685C108.246 207.434 112.811 206.368 117.168 204.521C118.835 203.782 120.57 202.715 121.585 200.911C122.052 200.108 122.292 199.15 122.269 198.175C122.246 197.201 121.962 196.26 121.458 195.49C120.928 194.644 120.165 194.046 119.302 193.799C118.439 193.553 117.53 193.674 116.734 194.142C115.998 194.614 115.4 195.34 115.019 196.224C114.707 196.953 114.299 198.393 114.698 199.16C114.901 199.55 115.397 199.705 115.722 199.894C116.266 200.211 116.814 200.516 117.367 200.811C118.334 201.327 119.312 201.811 120.302 202.263C122.469 203.252 124.685 204.08 126.938 204.744C135.803 207.346 145.054 207.482 153.97 205.141C156.187 204.557 158.372 203.815 160.513 202.917C162.538 202.068 164.675 201.16 166.537 199.873C168.004 198.859 169.724 197.117 169.586 194.886C169.531 194.071 169.21 193.314 168.691 192.775C168.173 192.237 167.498 191.96 166.81 192.003C166.104 192.006 165.412 192.242 164.812 192.685C164.212 193.128 163.728 193.76 163.414 194.511C162.617 196.659 163.414 199.105 164.578 200.82C167.09 204.522 171.376 205.852 175.221 205.807C179.677 205.754 183.901 204.083 188.034 202.266C192.662 200.23 197.494 197.971 202.522 198.332C207.053 198.657 211.323 201.84 215.924 201.18C219.918 200.606 222.262 196.811 223.298 192.49C223.766 190.383 224.086 188.234 224.255 186.064C224.339 185.173 223.163 185.18 223.08 186.064C222.68 190.306 222.073 195.685 218.915 198.379C215.084 201.645 210.097 198.767 206.083 197.606C201.452 196.268 196.906 197.18 192.441 198.917C188.044 200.628 183.81 202.967 179.229 203.943C175.25 204.791 170.846 204.697 167.375 201.944C165.67 200.591 163.637 197.931 164.421 195.267C164.869 193.746 167.204 192.5 168.152 194.097C169.548 196.449 166.038 198.677 164.69 199.414C162.625 200.538 160.503 201.506 158.335 202.311C144.147 207.567 128.796 206.095 115.502 198.206L115.793 198.808C115.567 196.398 117.628 194.137 119.596 195.405C121.47 196.612 121.458 199.263 120.059 200.925C118.682 202.562 116.707 203.291 114.889 203.939C112.883 204.655 110.84 205.216 108.773 205.62C100.094 207.299 91.1951 206.222 82.9791 202.5C79.2993 200.825 75.4886 197.424 71.3635 198.058C69.7181 198.31 68.1269 199.258 67.2717 201.005C66.518 202.544 66.3558 204.567 67.1571 206.125C68.4357 208.612 72.9142 208.498 72.9916 205.009C73.0797 201.035 70.9679 197.067 68.6088 194.463C61.2618 186.352 50.7793 188.288 41.795 190.298C41.0527 190.464 41.3671 191.809 42.1074 191.644L42.1074 191.644Z" fill="#CCCCCC"/>
<path d="M156.03 56.1827C158.887 55.6035 160.112 51.5094 159.441 48.4946C159.004 46.5344 157.98 44.8522 156.842 43.3775C155.521 41.6665 154.056 40.1039 152.648 38.4951C150.927 36.5279 149.206 34.5607 147.485 32.5934C147.412 32.5087 147.322 32.448 147.223 32.4171C147.124 32.3863 147.02 32.3863 146.921 32.4173C146.822 32.4483 146.732 32.5092 146.659 32.594C146.585 32.6788 146.532 32.7847 146.503 32.9013C145.759 38.6605 146.927 44.5379 149.76 49.295C150.484 50.4833 151.299 51.5893 152.195 52.5989C153.069 53.5967 154.006 54.59 154.549 55.9028L156.13 57.279C156.077 56.9101 155.999 56.5471 155.895 56.1938C155.94 56.1955 155.985 56.1918 156.03 56.1827Z" fill="#FD6584"/>
<path d="M155.941 55.8338H154.765C155.383 57.3257 155.13 59.5957 155.045 61.2128C154.949 63.0206 154.817 64.8264 154.702 66.6326C154.443 70.6941 154.184 74.7556 153.925 78.8171C153.868 79.7128 155.043 79.7085 155.1 78.8171L155.789 68.012C155.907 66.1728 156.024 64.3336 156.141 62.4944C156.236 60.2715 156.169 58.043 155.941 55.8338Z" fill="#3F3D56"/>
<path d="M156.024 55.9919C156.272 55.1227 156.36 54.2005 156.283 53.2873C156.206 52.3741 155.966 51.491 155.578 50.6973C155.497 50.5442 155.368 50.4346 155.22 50.3917C155.072 50.3488 154.916 50.3759 154.784 50.4672C154.653 50.5586 154.556 50.7071 154.515 50.8814C154.474 51.0557 154.491 51.2422 154.563 51.4016C154.874 52.0338 155.065 52.7392 155.121 53.4682C155.178 54.1971 155.099 54.9319 154.891 55.6209C154.849 55.7993 154.869 55.9897 154.946 56.1505C155.023 56.3113 155.151 56.4292 155.301 56.4783C155.451 56.5275 155.612 56.5039 155.747 56.4127C155.883 56.3215 155.982 56.1701 156.024 55.9919H156.024Z" fill="#3F3D56"/>
<path d="M110.199 54.7872C113.057 54.2081 114.282 50.1139 113.61 47.0991C113.174 45.139 112.149 43.4567 111.011 41.982C109.69 40.271 108.225 38.7085 106.818 37.0996C105.097 35.1324 103.376 33.1652 101.655 31.1979C101.581 31.1132 101.491 31.0525 101.392 31.0217C101.293 30.9908 101.189 30.9909 101.09 31.0219C100.991 31.0529 100.901 31.1137 100.828 31.1985C100.755 31.2833 100.701 31.3892 100.673 31.5058C99.9283 37.265 101.096 43.1424 103.929 47.8995C104.653 49.0878 105.468 50.1938 106.364 51.2034C107.238 52.2012 108.175 53.1946 108.718 54.5073L110.299 55.8835C110.247 55.5146 110.168 55.1516 110.064 54.7983C110.109 54.8 110.154 54.7963 110.199 54.7872Z" fill="#FD6584"/>
<path d="M110.11 54.4383H108.935C109.552 55.9302 109.3 58.2002 109.214 59.8173C109.118 61.6251 108.987 63.431 108.871 65.2371C108.612 69.2986 108.353 73.3601 108.094 77.4217C108.037 78.3174 109.213 78.313 109.269 77.4217L109.959 66.6165C110.076 64.7773 110.193 62.9381 110.31 61.099C110.405 58.876 110.338 56.6475 110.11 54.4383Z" fill="#3F3D56"/>
<path d="M110.193 54.5964C110.441 53.7272 110.529 52.8051 110.453 51.8919C110.376 50.9787 110.135 50.0956 109.747 49.3018C109.666 49.1487 109.538 49.0392 109.39 48.9962C109.242 48.9533 109.085 48.9804 108.954 49.0718C108.822 49.1631 108.725 49.3116 108.684 49.486C108.643 49.6603 108.66 49.8468 108.733 50.0061C109.043 50.6384 109.234 51.3438 109.29 52.0727C109.347 52.8017 109.268 53.5365 109.06 54.2255C109.019 54.4038 109.039 54.5943 109.116 54.7551C109.193 54.9158 109.32 55.0337 109.47 55.0829C109.621 55.132 109.781 55.1084 109.916 55.0172C110.052 54.926 110.151 54.7747 110.193 54.5964H110.193Z" fill="#3F3D56"/>
<path d="M131.743 52.4614C134.601 51.8823 135.826 47.7881 135.155 44.7734C134.718 42.8132 133.694 41.1309 132.555 39.6563C131.235 37.9452 129.769 36.3827 128.362 34.7739C126.641 32.8066 124.92 30.8394 123.199 28.8722C123.126 28.7875 123.035 28.7267 122.936 28.6959C122.837 28.665 122.734 28.6651 122.635 28.6961C122.536 28.7271 122.445 28.7879 122.372 28.8728C122.299 28.9576 122.246 29.0634 122.217 29.18C121.473 34.9392 122.64 40.8166 125.473 45.5737C126.197 46.762 127.012 47.868 127.908 48.8777C128.782 49.8755 129.72 50.8688 130.263 52.1815L131.843 53.5577C131.791 53.1888 131.713 52.8258 131.609 52.4726C131.654 52.4742 131.699 52.4705 131.743 52.4614Z" fill="#FD6584"/>
<path d="M131.654 52.1125H130.479C131.096 53.6045 130.844 55.8744 130.758 57.4915C130.662 59.2993 130.531 61.1052 130.416 62.9113C130.157 66.9728 129.898 71.0344 129.639 75.0959C129.582 75.9916 130.757 75.9873 130.814 75.0959L131.503 64.2907C131.62 62.4515 131.738 60.6124 131.855 58.7732C131.95 56.5503 131.883 54.3217 131.654 52.1125Z" fill="#3F3D56"/>
<path d="M131.737 52.2707C131.985 51.4014 132.074 50.4793 131.997 49.5661C131.92 48.6529 131.68 47.7698 131.292 46.976C131.21 46.8229 131.082 46.7134 130.934 46.6705C130.786 46.6276 130.629 46.6546 130.498 46.746C130.366 46.8374 130.27 46.9859 130.228 47.1602C130.187 47.3345 130.205 47.521 130.277 47.6804C130.588 48.3126 130.778 49.018 130.835 49.747C130.891 50.4759 130.812 51.2107 130.604 51.8997C130.563 52.078 130.583 52.2685 130.66 52.4293C130.737 52.5901 130.865 52.708 131.015 52.7571C131.165 52.8063 131.325 52.7826 131.461 52.6914C131.596 52.6002 131.696 52.4489 131.737 52.2707H131.737Z" fill="#3F3D56"/>
<path d="M148.272 135.485C147.982 134.171 146.875 133.061 145.749 133.304C144.845 133.499 144.178 134.484 143.928 135.534C143.734 136.604 143.709 137.707 143.854 138.787C142.845 137.527 141.795 136.232 140.444 135.56C139.969 135.283 139.428 135.204 138.911 135.337C138.558 135.489 138.252 135.762 138.029 136.12C137.806 136.478 137.677 136.906 137.658 137.351C137.634 138.244 137.837 139.125 138.24 139.88C138.804 141.035 139.578 142.027 140.505 142.782C141.432 143.538 142.49 144.038 143.601 144.247L143.237 143.683C145.086 142.917 146.643 141.391 147.628 139.382C148.2 138.205 148.562 136.799 148.272 135.485Z" fill="#6C63FF"/>
<path d="M94.9983 190.373C94.7083 189.059 93.6015 187.95 92.4761 188.193C91.5717 188.387 90.9052 189.372 90.6552 190.422C90.4609 191.492 90.4355 192.595 90.5804 193.676C89.5712 192.415 88.5213 191.121 87.1705 190.449C86.6953 190.171 86.155 190.092 85.6373 190.225C85.2851 190.378 84.9786 190.65 84.7558 191.008C84.5331 191.367 84.4041 191.795 84.3849 192.239C84.3609 193.133 84.5638 194.014 84.9671 194.768C85.5308 195.924 86.3044 196.915 87.2317 197.671C88.159 198.426 89.2165 198.927 90.3272 199.135L89.9633 198.571C91.8123 197.805 93.3699 196.28 94.3548 194.27C94.9263 193.094 95.2882 191.687 94.9983 190.373Z" fill="#6C63FF"/>
<path d="M104.399 108.506C104.11 107.192 103.003 106.082 101.877 106.325C100.973 106.52 100.306 107.505 100.056 108.555C99.8621 109.624 99.8367 110.728 99.9816 111.808C98.9724 110.548 97.9225 109.253 96.5717 108.581C96.0965 108.303 95.5562 108.225 95.0385 108.358C94.6863 108.51 94.3797 108.783 94.157 109.141C93.9343 109.499 93.8053 109.927 93.7861 110.372C93.7621 111.265 93.965 112.146 94.3683 112.901C94.932 114.056 95.7056 115.048 96.6329 115.803C97.5602 116.559 98.6177 117.059 99.7284 117.268L99.3645 116.704C101.214 115.938 102.771 114.412 103.756 112.403C104.328 111.226 104.689 109.82 104.399 108.506Z" fill="#6C63FF"/>
<path d="M187.194 31.6557C186.225 36.7118 185.764 42.444 188.349 46.9687C189.448 48.9097 191.06 50.3603 192.931 51.0907C194.825 51.7576 196.822 51.9032 198.771 51.5166C203.18 50.7913 207.098 48.0642 211.434 47.0054C213.348 46.5382 215.378 46.3837 217.22 47.283C218.601 47.9567 220.054 49.3113 220.061 51.2436C220.068 53.2279 218.616 54.5449 217.173 55.155C215.247 55.969 213.246 55.654 211.248 55.5514C209.096 55.4408 206.903 55.6719 205.115 57.2365C203.578 58.6613 202.399 60.5593 201.707 62.7241C200.808 65.3132 200.444 68.0968 199.869 70.7981C199.356 73.2268 198.63 75.5849 197.702 77.8339C195.883 82.2419 193.332 86.168 190.203 89.3766C188.66 90.9535 186.785 92.5601 184.678 92.7046C183.052 92.8161 181.077 92.005 180.45 90.05C180.217 89.2059 180.24 88.2918 180.515 87.4655C180.789 86.6392 181.298 85.9527 181.953 85.5244C183.346 84.6896 184.863 85.8804 185.313 87.5148C185.431 87.8915 185.472 88.2961 185.433 88.6954C185.394 89.0947 185.277 89.4774 185.089 89.8122C184.667 90.5602 185.685 91.2595 186.104 90.5165C187.078 88.7916 186.569 86.4718 185.376 85.0901C184.794 84.3855 184.016 83.9565 183.187 83.8831C182.358 83.8097 181.535 84.0971 180.872 84.6914C180.182 85.3148 179.661 86.1635 179.372 87.1336C179.083 88.1036 179.039 89.1527 179.245 90.1522C179.746 92.2996 181.523 93.6655 183.297 94.0039C185.489 94.4218 187.598 93.3992 189.366 91.9217C191.141 90.4004 192.755 88.6304 194.172 86.6501C197.054 82.7142 199.221 78.1141 200.536 73.1378C201.83 68.2158 201.924 61.7138 205.767 58.3898C207.745 56.6794 210.168 56.8691 212.487 57.0261C214.534 57.1647 216.531 57.1395 218.409 56.0391C219.959 55.1305 221.21 53.4533 221.236 51.3166C221.262 49.1596 219.973 47.4252 218.453 46.4425C214.439 43.8463 209.618 45.9401 205.675 47.6745C201.709 49.4188 197.181 51.4659 192.966 49.6304C191.021 48.7328 189.455 46.9558 188.611 44.6891C187.59 42.119 187.445 39.2028 187.681 36.4135C187.82 34.9368 188.036 33.4718 188.327 32.0267C188.495 31.1523 187.362 30.779 187.194 31.6557V31.6557Z" fill="#3F3D56"/>
<path d="M194.397 17.4721C193.235 22.0794 191.483 26.4471 189.203 30.422C188.639 31.3989 188.046 32.3509 187.425 33.2781C186.941 32.2356 186.356 31.2644 185.681 30.3848C183.312 27.2916 180.135 25.2681 177.052 23.24C173.969 21.212 170.839 19.035 168.661 15.7464C167.684 14.266 166.984 12.5548 166.609 10.7273C166.115 8.24806 166.303 5.66179 167.521 3.59185C169.292 0.582289 172.821 -0.478262 175.822 0.39158C178.826 1.26142 181.341 3.7407 183.292 6.58745C182.653 3.08948 185.76 -0.287549 188.764 0.0194536C191.769 0.331108 194.178 3.44765 194.977 6.89911C195.78 10.3459 195.259 14.0393 194.397 17.4721Z" fill="#6C63FF"/>
<g opacity="0.2">
<path d="M189.203 30.422C188.639 31.3989 188.046 32.3509 187.424 33.2781C186.941 32.2355 186.356 31.2644 185.681 30.3848C183.311 27.2915 180.135 25.2681 177.052 23.24C173.969 21.2119 170.839 19.035 168.661 15.7464C167.684 14.266 166.984 12.5548 166.609 10.7273C173.539 11.8682 179.907 15.8798 184.588 22.0539C186.463 24.5604 188.017 27.3798 189.203 30.422Z" fill="black"/>
</g>
<path d="M261.068 96.3995C261.627 96.3815 262.175 96.2184 262.675 95.9214C263.175 95.6245 263.614 95.201 263.961 94.6808C264.308 94.1606 264.555 93.5563 264.684 92.9106C264.813 92.2648 264.822 91.5933 264.709 90.9433L275.984 82.4055L269.627 78.757L259.915 87.4379C259.008 87.7357 258.224 88.4183 257.713 89.3562C257.201 90.2942 256.997 91.4223 257.139 92.527C257.281 93.6316 257.76 94.6359 258.484 95.3496C259.208 96.0634 260.127 96.4369 261.068 96.3995L261.068 96.3995Z" fill="#9E616A"/>
<path d="M263.366 54.8523C263.366 54.8523 256.748 48.4969 259.374 43.9878C262.001 39.4786 268.708 44.3887 268.708 44.3887L288.23 70.741C288.23 70.741 267.492 93.093 268.136 89.7734C268.779 86.4539 263.968 83.8588 263.968 83.8588L273.223 71.4992L271.193 70.3307L272.021 69.7649L271.15 67.3417L263.366 54.8523Z" fill="#E6E6E6"/>
<path d="M324 232.302C324 232.375 323.988 232.447 323.965 232.514C323.941 232.582 323.907 232.643 323.864 232.694C323.821 232.746 323.769 232.786 323.712 232.814C323.656 232.842 323.595 232.856 323.534 232.856L235.386 232.87L229.228 232.874L225.166 232.879H220.673L218.221 232.884L211.413 232.888L104.294 232.953L103.48 232.958L55.5649 232.977H54.7736L13.9882 232.995H13.1969L0.466143 233C0.342514 233 0.223954 232.942 0.136535 232.838C0.0491166 232.734 0 232.593 0 232.446C0 232.3 0.0491166 232.159 0.136535 232.055C0.223954 231.951 0.342514 231.893 0.466143 231.893L13.3301 231.888H14.1214L54.8951 231.87H55.6863L103.229 231.851H104.04L144.551 231.832H145.084L210.669 231.786L217.465 231.781L220.575 231.777L225.491 231.772H229.69L236.307 231.767L323.534 231.749C323.595 231.749 323.656 231.763 323.712 231.79C323.769 231.818 323.821 231.859 323.864 231.91C323.907 231.962 323.941 232.023 323.965 232.09C323.988 232.157 324 232.23 324 232.302Z" fill="#CACACA"/>
<path d="M269.414 10.9263C268.565 9.37988 267.629 7.74571 266.187 7.05476C264.745 6.36378 262.701 7.19001 262.505 9.02139C262.358 10.3904 263.238 11.5663 263.9 12.7003C264.562 13.8343 264.993 15.5459 264.128 16.4675L263.641 16.7655C264.106 17.4791 264.706 18.0532 265.392 18.4418C266.078 18.8304 266.831 19.0227 267.59 19.0032C269.103 18.8896 270.56 17.5567 270.815 15.7831C271.064 14.0537 270.221 12.3959 269.414 10.9263Z" fill="#2F2E41"/>
</g>
<defs>
<clipPath id="clip0_1_17">
<rect width="324" height="233" fill="white"/>
</clipPath>
</defs>
</svg>
